<svg width="100%" height="100%" xmlns="http://www.w3.org/2000/svg">
  <rect width="100%" height="100%" fill="#D4F8BF" />
  <g fill="none" stroke="green" stroke-width="5" stroke-opacity="0.2">
    <circle cx="250" cy="150" r="40" />
    <circle cx="150" cy="250" r="50" />
    <circle cx="250" cy="200" r="30" />
    <circle cx="350" cy="300" r="60" />
    <circle cx="450" cy="60" r="20" />
  </g>
  <g fill="none" stroke="green" stroke-width="2" stroke-opacity="0.2">
    <path d="M10 80 Q 95 10 180 80 T 300 80" />
    <path d="M50 200 C 50 150, 200 150, 200 200 S 350 250, 350 200" />
    <path fill="#B3EBA6" d="M474.295 62.618c-29.409 0-54.777 10.055-76.174 30.23C379.702 102.17 364.99 128.75 364.99 161.294c0 14.61 4.198 27.144 12.593 37.6 8.399 10.457 19.74 17.945 34.013 22.47 14.265 4.523 30.133 6.782 47.595 6.782 17.461 0 33.33-2.256 47.603-6.782 14.27-4.525 25.61-11.997 34.007-22.47 8.4-10.457 12.593-23.056 12.593-37.794 0-30.06-14.675-56.66-44.03-79.794-13.746-11.217-30.45-20.162-50.105-26.83-19.662-6.672-39.644-10.007-59.937-10.007z"/>
    <path fill="#B3EBA6" d="M312.892 139.994c-25.51 0-47.29 8.738-65.345 26.228-18.057 17.495-27.081 39.264-27.081 65.307 0 26.04 9.024 47.83 27.081 65.372 18.055 17.54 39.835 26.305 65.345 26.305 25.503 0 47.283-8.766 65.345-26.305 18.054-17.542 27.08-39.332 27.08-65.372 0-26.043-9.026-47.812-27.08-65.307-18.062-17.49-39.842-26.228-65.345-26.228zM312.892 167.36c17.872 0 33.4 6.309 46.581 18.918 13.19 12.6 19.785 27.924 19.785 45.973 0 17.994-6.606 33.346-19.785 45.976-13.181 12.626-28.709 18.937-46.581 18.937-17.871 0-33.4-6.311-46.58-18.937-13.188-12.63-19.784-27.982-19.784-45.976 0-18.049 6.309-33.373 19.79-45.973 13.19-12.609 28.722-18.918 46.586-18.918z"/>
  </g>
</svg>
